<svg width="136" height="239" viewBox="0 0 136 239" fill="none" xmlns="http://www.w3.org/2000/svg">
<path d="M111.649 0H16.2539C3.07406 0 -7.60455 10.6786 -7.60455 23.8585V47.6977H135.489V23.8585C135.489 10.6786 124.81 0 111.649 0Z" fill="#38A5EE"/>
<path d="M111.649 0H16.2539C3.07406 0 -7.60455 10.6786 -7.60455 23.8585V43.0992C-7.60455 29.9193 3.07406 19.2407 16.2539 19.2407H111.649C124.81 19.2407 135.489 29.9193 135.489 43.0992V23.8585C135.489 10.6786 124.81 0 111.649 0Z" fill="#4DB0F2"/>
<path d="M111.649 95.4146H40.0931V143.112H111.649C124.81 143.112 135.489 153.772 135.489 166.952V119.254C135.489 106.074 124.81 95.4146 111.649 95.4146Z" fill="url(#paint0_linear_10_328)"/>
<path d="M111.649 95.4146H40.0931V143.112H111.649C124.81 143.112 135.489 153.772 135.489 166.952V119.254C135.489 106.074 124.81 95.4146 111.649 95.4146Z" fill="#38A5EE"/>
<path d="M111.649 95.4146H40.0931V114.655H111.649C124.81 114.655 135.489 125.315 135.489 138.495V119.254C135.489 106.074 124.81 95.4146 111.649 95.4146Z" fill="#4DB0F2"/>
<path d="M40.0932 190.81V214.649C40.0932 227.829 29.4147 238.508 16.254 238.508H63.9518C77.1124 238.508 87.791 227.829 87.791 214.649V190.81H40.0932Z" fill="url(#paint1_linear_10_328)"/>
<path d="M40.0932 190.81V214.649C40.0932 227.829 29.4147 238.508 16.254 238.508H63.9518C77.1124 238.508 87.791 227.829 87.791 214.649V190.81H40.0932Z" fill="#38A5EE"/>
<path d="M63.9518 219.267H39.6392C37.4881 230.234 27.8369 238.508 16.254 238.508H63.9518C77.1124 238.508 87.791 227.829 87.791 214.649V195.409C87.791 208.588 77.1124 219.267 63.9518 219.267Z" fill="#4DB0F2"/>
<defs>
<linearGradient id="paint0_linear_10_328" x1="135.607" y1="130.121" x2="44.065" y2="132.155" gradientUnits="userSpaceOnUse">
<stop stop-color="#FF6700"/>
<stop offset="1" stop-color="#C42700"/>
</linearGradient>
<linearGradient id="paint1_linear_10_328" x1="38.5302" y1="214.659" x2="82.0651" y2="214.659" gradientUnits="userSpaceOnUse">
<stop stop-color="#FF6700"/>
<stop offset="1" stop-color="#C42700"/>
</linearGradient>
</defs>
</svg>
